<svg width="25" height="24" viewBox="0 0 25 24" fill="none" xmlns="http://www.w3.org/2000/svg">
<path d="M24.0765 21.5593V2.44059C24.0765 1.09481 23.0173 -6.10352e-05 21.7153 -6.10352e-05H3.21908C1.91713 -6.10352e-05 0.85791 1.09481 0.85791 2.44059V21.5593C0.85791 22.9051 1.91713 23.9999 3.21908 23.9999H21.7153C23.0173 23.9999 24.0765 22.9052 24.0765 21.5593ZM6.01401 21.1865C4.6718 21.1865 3.57987 20.0578 3.57987 18.6705C3.57987 17.2832 4.6718 16.1545 6.01401 16.1545C7.3561 16.1545 8.44802 17.2832 8.44802 18.6705C8.44802 20.0578 7.3561 21.1865 6.01401 21.1865ZM6.01401 7.84553C4.6718 7.84553 3.57987 6.71685 3.57987 5.32946C3.57987 3.9422 4.6718 2.81352 6.01401 2.81352C7.3561 2.81352 8.44802 3.9422 8.44802 5.32946C8.44802 6.71685 7.3561 7.84553 6.01401 7.84553ZM12.629 14.3272C11.2869 14.3272 10.1949 13.1985 10.1949 11.8112C10.1949 10.424 11.2869 9.29515 12.629 9.29515C13.9712 9.29515 15.0631 10.4238 15.0631 11.8111C15.0631 13.1984 13.9712 14.3272 12.629 14.3272ZM18.9204 21.1865C17.5783 21.1865 16.4864 20.0578 16.4864 18.6705C16.4864 17.2832 17.5783 16.1545 18.9204 16.1545C20.2625 16.1545 21.3544 17.2832 21.3544 18.6705C21.3544 20.0578 20.2625 21.1865 18.9204 21.1865ZM18.9204 7.84553C17.5783 7.84553 16.4864 6.71685 16.4864 5.32946C16.4864 3.9422 17.5783 2.81352 18.9204 2.81352C20.2625 2.81352 21.3544 3.9422 21.3544 5.32946C21.3544 6.71685 20.2625 7.84553 18.9204 7.84553Z" fill="white"/>
</svg>
